<svg xmlns="http://www.w3.org/2000/svg" width="1080" height="1080" viewBox="0 0 1080 1080">
  <defs>
    <style>
      .cls-1 {
        fill: #296a5d;
      }

      .cls-1, .cls-2 {
        fill-rule: evenodd;
      }

      .cls-2 {
        fill: #358c7b;
      }
    </style>
  </defs>
  <g id="Artboard_1" data-name="Artboard 1">
    <g>
      <path id="Rounded_Rectangle_1_copy_5" data-name="Rounded Rectangle 1 copy 5" class="cls-1" d="M479.456,168.583A116.073,116.073,0,0,1,595.529,284.656V782.668a116.073,116.073,0,1,1-232.146,0V284.656A116.073,116.073,0,0,1,479.456,168.583Z"/>
      <path id="Rounded_Rectangle_1_copy_6" data-name="Rounded Rectangle 1 copy 6" class="cls-1" d="M808.66,168.583h0A116.054,116.054,0,0,1,924.714,284.637V782.686A116.055,116.055,0,0,1,808.66,898.741h0A116.055,116.055,0,0,1,692.606,782.686V284.637A116.054,116.054,0,0,1,808.66,168.583Z"/>
      <path id="Rounded_Rectangle_1_copy" data-name="Rounded Rectangle 1 copy" class="cls-2" d="M541.827,159.141c53.95,31.917,70.618,103.542,37.23,159.98L249.3,876.521c-33.388,56.438-104.19,76.317-158.14,44.4s-70.619-103.542-37.23-159.98l329.754-557.4C417.075,147.1,487.877,127.225,541.827,159.141Z"/>
      <path id="Rounded_Rectangle_1_copy_3" data-name="Rounded Rectangle 1 copy 3" class="cls-2" d="M988.238,521.467c54.112,31.97,70.832,103.714,37.342,160.246L905.842,877.081c-33.491,56.532-104.51,76.444-158.625,44.474s-70.835-103.714-37.345-160.246L829.613,565.941C863.1,509.409,934.122,489.5,988.238,521.467Z"/>
      <path id="Rounded_Rectangle_1_copy_2" data-name="Rounded Rectangle 1 copy 2" class="cls-2" d="M870.184,158.507c54.128,31.97,70.852,103.715,37.353,160.247L576.7,877.081c-33.5,56.532-104.534,76.444-158.662,44.474S347.182,817.841,380.68,761.309L711.522,202.981C745.02,146.45,816.056,126.538,870.184,158.507Z"/>
    </g>
  </g>
</svg>
